<?xml version="1.0" encoding="utf-8"?>
<!-- Generator: Adobe Illustrator 19.0.0, SVG Export Plug-In . SVG Version: 6.00 Build 0)  -->
<svg version="1.1" id="Layer_1" xmlns="http://www.w3.org/2000/svg" xmlns:xlink="http://www.w3.org/1999/xlink" x="0px" y="0px"
	 viewBox="-651 149 496 496" style="enable-background:new -651 149 496 496;" xml:space="preserve">
<style type="text/css">
	.st0{fill:url(#SVGID_1_);}
	.st1{fill:url(#SVGID_2_);}
	.st2{fill:url(#SVGID_3_);}
	.st3{fill:url(#SVGID_4_);}
	.st4{fill:url(#SVGID_5_);}
	.st5{fill:url(#SVGID_6_);}
	.st6{fill:url(#SVGID_7_);}
	.st7{fill:url(#SVGID_8_);}
</style>
<linearGradient id="SVGID_1_" gradientUnits="userSpaceOnUse" x1="-522.9185" y1="275.7159" x2="-458.9185" y2="275.7159" gradientTransform="matrix(1 0 0 -1 0 796)">
	<stop  offset="0" style="stop-color:#E34E6B"/>
	<stop  offset="1" style="stop-color:#F8874C"/>
</linearGradient>
<path class="st0" d="M-490.9,488.3c-17.6,0-32,14.4-32,32c0,17.6,14.4,32,32,32s32-14.4,32-32C-458.9,502.7-473.3,488.3-490.9,488.3
	z M-490.9,536.3c-8.8,0-16-7.2-16-16s7.2-16,16-16s16,7.2,16,16S-482.1,536.3-490.9,536.3z"/>
<linearGradient id="SVGID_2_" gradientUnits="userSpaceOnUse" x1="-330.9185" y1="275.7159" x2="-266.9185" y2="275.7159" gradientTransform="matrix(1 0 0 -1 0 796)">
	<stop  offset="0" style="stop-color:#E34E6B"/>
	<stop  offset="1" style="stop-color:#F8874C"/>
</linearGradient>
<path class="st1" d="M-298.9,488.3c-17.6,0-32,14.4-32,32c0,17.6,14.4,32,32,32s32-14.4,32-32C-266.9,502.7-281.3,488.3-298.9,488.3
	z M-298.9,536.3c-8.8,0-16-7.2-16-16s7.2-16,16-16s16,7.2,16,16S-290.1,536.3-298.9,536.3z"/>
<linearGradient id="SVGID_3_" gradientUnits="userSpaceOnUse" x1="-618.9185" y1="399.7159" x2="-155.0175" y2="399.7159" gradientTransform="matrix(1 0 0 -1 0 796)">
	<stop  offset="0" style="stop-color:#E34E6B"/>
	<stop  offset="1" style="stop-color:#F8874C"/>
</linearGradient>
<path class="st2" d="M-170.9,409.8v-64.2c0-7.6-2.2-15.1-6.3-21.5l-46.3-72.7c-4.4-7-12-11.1-20.2-11.1h-55.2v-32h-262.2l-12,48
	h24.7l-2.8,16h-67.7v16h64.9l-5.6,32h-59.3v16h56.6l-5.6,32h-51v16h48.2l-7,40H-594l-8,64h-0.9c-8.8,0-16,7.2-16,16v32
	c0,8.8,7.2,16,16,16h56.7c11.1,19.1,31.7,32,55.3,32s44.3-12.9,55.3-32h81.3c11.1,19.1,31.7,32,55.3,32s44.3-12.9,55.3-32h63.1
	l25.4-118.3l0.2-1.7C-154.9,421.9-161.6,413.1-170.9,409.8z M-243.7,256.3c2.7,0,5.3,1.4,6.7,3.7l46.3,72.7
	c2.5,3.8,3.8,8.3,3.8,12.9v62.7h-30.6l-3.2,16h-126.2v-160c0-4.4,3.6-8,8-8H-243.7z M-548.7,224.3h233.8v16h-237.8L-548.7,224.3z
	 M-532.2,256.3h170.7c-0.9,2.5-1.5,5.2-1.5,8v160h-198.5L-532.2,256.3z M-579.8,440.3h356l-9.6,48h-10.1c-11.1-19.1-31.7-32-55.3-32
	s-44.3,12.9-55.3,32h-81.3c-11.1-19.1-31.7-32-55.3-32s-44.3,12.9-55.3,32h-39.6L-579.8,440.3z M-602.9,536.3v-32h50.1
	c-1.3,5.1-2.1,10.5-2.1,16s0.8,10.9,2.1,16H-602.9z M-490.9,568.3c-26.5,0-48-21.5-48-48s21.5-48,48-48s48,21.5,48,48
	S-464.4,568.3-490.9,568.3z M-429,536.3c1.3-5.1,2.1-10.5,2.1-16s-0.8-10.9-2.1-16h68.2c-1.3,5.1-2.1,10.5-2.1,16s0.8,10.9,2.1,16
	H-429z M-298.9,568.3c-26.5,0-48-21.5-48-48s21.5-48,48-48s48,21.5,48,48S-272.4,568.3-298.9,568.3z M-193.4,536.3H-237
	c1.3-5.1,2.1-10.5,2.1-16s-0.8-10.9-2.1-16h16.7l16-80h25.4c4.2,0,7.6,3.2,8,7.3L-193.4,536.3z"/>
<linearGradient id="SVGID_4_" gradientUnits="userSpaceOnUse" x1="-330.9185" y1="471.7159" x2="-202.9185" y2="471.7159" gradientTransform="matrix(1 0 0 -1 0 796)">
	<stop  offset="0" style="stop-color:#E34E6B"/>
	<stop  offset="1" style="stop-color:#F8874C"/>
</linearGradient>
<path class="st3" d="M-202.9,342l-43.6-69.7h-84.4v104h128V342z M-218.9,360.3h-96v-72h59.6l36.4,58.3V360.3z"/>
<linearGradient id="SVGID_5_" gradientUnits="userSpaceOnUse" x1="-330.9185" y1="395.7159" x2="-282.9185" y2="395.7159" gradientTransform="matrix(1 0 0 -1 0 796)">
	<stop  offset="0" style="stop-color:#E34E6B"/>
	<stop  offset="1" style="stop-color:#F8874C"/>
</linearGradient>
<path class="st4" d="M-330.9,392.3h48v16h-48V392.3z"/>
<linearGradient id="SVGID_6_" gradientUnits="userSpaceOnUse" x1="-650.9185" y1="515.7159" x2="-634.9185" y2="515.7159" gradientTransform="matrix(1 0 0 -1 0 796)">
	<stop  offset="0" style="stop-color:#E34E6B"/>
	<stop  offset="1" style="stop-color:#F8874C"/>
</linearGradient>
<path class="st5" d="M-650.9,272.3h16v16h-16V272.3z"/>
<linearGradient id="SVGID_7_" gradientUnits="userSpaceOnUse" x1="-650.9185" y1="467.7159" x2="-634.9185" y2="467.7159" gradientTransform="matrix(1 0 0 -1 0 796)">
	<stop  offset="0" style="stop-color:#E34E6B"/>
	<stop  offset="1" style="stop-color:#F8874C"/>
</linearGradient>
<path class="st6" d="M-650.9,320.3h16v16h-16V320.3z"/>
<linearGradient id="SVGID_8_" gradientUnits="userSpaceOnUse" x1="-650.9185" y1="419.7159" x2="-634.9185" y2="419.7159" gradientTransform="matrix(1 0 0 -1 0 796)">
	<stop  offset="0" style="stop-color:#E34E6B"/>
	<stop  offset="1" style="stop-color:#F8874C"/>
</linearGradient>
<path class="st7" d="M-650.9,368.3h16v16h-16V368.3z"/>
</svg>
