<?xml version="1.0" encoding="utf-8"?>
<!-- Generator: Adobe Illustrator 19.0.0, SVG Export Plug-In . SVG Version: 6.00 Build 0)  -->
<svg version="1.1" id="Layer_1" xmlns="http://www.w3.org/2000/svg" xmlns:xlink="http://www.w3.org/1999/xlink" x="0px" y="0px"
	 viewBox="-651 149 496 496" style="enable-background:new -651 149 496 496;" xml:space="preserve">
<style type="text/css">
	.st0{fill:url(#SVGID_1_);}
	.st1{fill:url(#SVGID_2_);}
	.st2{fill:url(#SVGID_3_);}
	.st3{fill:url(#SVGID_4_);}
	.st4{fill:url(#SVGID_5_);}
	.st5{fill:url(#SVGID_6_);}
	.st6{fill:url(#SVGID_7_);}
</style>
<linearGradient id="SVGID_1_" gradientUnits="userSpaceOnUse" x1="-555.1624" y1="502.7605" x2="-250.8416" y2="198.4397">
	<stop  offset="0" style="stop-color:#E34E6B"/>
	<stop  offset="1" style="stop-color:#F8874C"/>
</linearGradient>
<path class="st0" d="M-280.5,285.8l25.6-25.6c3.2,1.5,6.7,2.4,10.3,2.4c6.1,0,12.3-2.3,17-7c9.4-9.4,9.4-24.6,0-33.9
	c-9.4-9.4-24.6-9.3-33.9,0c-7.4,7.4-8.8,18.3-4.6,27.2l-21,21l-14.6-32.9H-339v16c0,8.8-7.2,16-16,16s-16-7.2-16-16v-16h-24v-41.5
	c9.3-3.3,16-12.1,16-22.5c0-13.2-10.8-24-24-24s-24,10.8-24,24c0,10.4,6.7,19.2,16,22.5V237h-24v16c0,8.8-7.2,16-16,16
	s-16-7.2-16-16v-16h-37.2l-14.6,32.9l-21-21c4.2-8.9,2.8-19.9-4.6-27.2c-9.4-9.4-24.6-9.3-33.9,0c-9.4,9.4-9.4,24.6,0,33.9
	c4.7,4.7,10.8,7,17,7c3.5,0,7-0.9,10.3-2.4l25.6,25.6c-8.9,23.4-13.5,48-13.5,73.3c0,71.6,36.2,137,97,174.9l31,19.4v45
	c-9.3,3.3-16,12.1-16,22.5c0,13.2,10.8,24,24,24s24-10.8,24-24c0-10.4-6.7-19.2-16-22.5v-45l31-19.4c60.7-37.9,97-103.4,97-174.9
	C-267,333.8-271.5,309.2-280.5,285.8z M-403,165c4.4,0,8,3.6,8,8s-3.6,8-8,8s-8-3.6-8-8S-407.4,165-403,165z M-250.3,233
	c1.6-1.6,3.6-2.3,5.7-2.3c2.1,0,4.1,0.8,5.7,2.3c3.1,3.1,3.1,8.2,0,11.3c-3.1,3.1-8.2,3.1-11.3,0
	C-253.4,241.1-253.4,236.1-250.3,233z M-567,244.3c-3.1-3.1-3.1-8.2,0-11.3c1.6-1.6,3.6-2.3,5.7-2.3c2,0,4.1,0.8,5.7,2.3
	c3.1,3.1,3.1,8.2,0,11.3C-558.9,247.4-563.9,247.4-567,244.3z M-403,629c-4.4,0-8-3.6-8-8s3.6-8,8-8s8,3.6,8,8S-398.6,629-403,629z
	 M-372.4,520.5l-30.6,19.1l-30.6-19.1c-56-35-89.4-95.3-89.4-161.4c0-26.8,5.5-52.8,16.4-77.3l12.8-28.8h10.8c0,17.6,14.4,32,32,32
	s32-14.4,32-32h32c0,17.6,14.4,32,32,32s32-14.4,32-32h10.8l12.8,28.8c10.9,24.5,16.4,50.5,16.4,77.3
	C-283,425.1-316.4,485.5-372.4,520.5z"/>
<linearGradient id="SVGID_2_" gradientUnits="userSpaceOnUse" x1="-465.2207" y1="459.2207" x2="-340.7754" y2="334.7754">
	<stop  offset="0" style="stop-color:#E34E6B"/>
	<stop  offset="1" style="stop-color:#F8874C"/>
</linearGradient>
<path class="st1" d="M-325.4,350.2l-30.8-30.8l-18.5,9.3l-6.5-19.6h-43.5l-6.5,19.6l-18.5-9.3l-30.8,30.8l9.3,18.5l-19.7,6.5v43.5
	l19.6,6.5l-9.3,18.5l30.8,30.8l18.5-9.3l6.5,19.7h43.5l6.5-19.6l18.5,9.3l30.8-30.8l-9.3-18.5l19.7-6.5v-43.5l-19.6-6.5
	L-325.4,350.2z M-331,386.8v20.5l-18.4,6.1l-1.3,3.6c-0.4,1-0.8,2-1.2,3l-1.6,3.5l8.6,17.3l-14.5,14.5l-17.3-8.6l-3.5,1.6
	c-1,0.4-2,0.8-3,1.2l-3.6,1.3l-6.1,18.4h-20.5l-6.1-18.4l-3.6-1.3c-1-0.4-2-0.8-3-1.2l-3.5-1.6l-17.3,8.6l-14.5-14.5l8.6-17.3
	l-1.6-3.5c-0.4-1-0.8-2-1.2-3l-1.3-3.6l-18.4-6.1v-20.5l18.4-6.1l1.3-3.6c0.4-1,0.8-2,1.2-3l1.6-3.5l-8.6-17.3l14.5-14.5l17.3,8.6
	l3.5-1.6c1-0.4,2-0.8,3-1.2l3.6-1.3l6.1-18.4h20.5l6.1,18.4l3.6,1.3c1,0.4,2,0.8,3,1.2l3.5,1.6l17.3-8.6l14.5,14.5l-8.6,17.3
	l1.6,3.5c0.4,1,0.8,2,1.2,3l1.3,3.6L-331,386.8z"/>
<linearGradient id="SVGID_3_" gradientUnits="userSpaceOnUse" x1="-431.2705" y1="425.2705" x2="-374.7295" y2="368.7295">
	<stop  offset="0" style="stop-color:#E34E6B"/>
	<stop  offset="1" style="stop-color:#F8874C"/>
</linearGradient>
<path class="st2" d="M-403,357c-22.1,0-40,17.9-40,40s17.9,40,40,40s40-17.9,40-40S-380.9,357-403,357z M-403,421
	c-13.2,0-24-10.8-24-24s10.8-24,24-24s24,10.8,24,24S-389.8,421-403,421z"/>
<linearGradient id="SVGID_4_" gradientUnits="userSpaceOnUse" x1="-632.4421" y1="425.4807" x2="-575.4807" y2="368.5193">
	<stop  offset="0" style="stop-color:#E34E6B"/>
	<stop  offset="1" style="stop-color:#F8874C"/>
</linearGradient>
<path class="st3" d="M-555,405v-16h-49.5c-3.3-9.3-12.1-16-22.5-16c-13.2,0-24,10.8-24,24s10.8,24,24,24c10.4,0,19.2-6.7,22.5-16
	H-555z M-627,405c-4.4,0-8-3.6-8-8s3.6-8,8-8s8,3.6,8,8S-622.6,405-627,405z"/>
<linearGradient id="SVGID_5_" gradientUnits="userSpaceOnUse" x1="-578.3604" y1="572.3662" x2="-510.4736" y2="504.4795">
	<stop  offset="0" style="stop-color:#E34E6B"/>
	<stop  offset="1" style="stop-color:#F8874C"/>
</linearGradient>
<path class="st4" d="M-516.1,498.8l-35,35c-8.9-4.2-19.9-2.8-27.2,4.6c-9.4,9.4-9.4,24.6,0,33.9c4.7,4.7,10.8,7,17,7
	c6.2,0,12.3-2.3,17-7c7.4-7.4,8.8-18.3,4.6-27.2l35-35L-516.1,498.8z M-555.7,561c-3.1,3.1-8.2,3.1-11.3,0c-3.1-3.1-3.1-8.2,0-11.3
	c3.1-3.1,8.2-3.1,11.3,0C-552.6,552.9-552.6,557.9-555.7,561z"/>
<linearGradient id="SVGID_6_" gradientUnits="userSpaceOnUse" x1="-278.5469" y1="555.3867" x2="-244.5996" y2="521.4395">
	<stop  offset="0" style="stop-color:#E34E6B"/>
	<stop  offset="1" style="stop-color:#F8874C"/>
</linearGradient>
<path class="st5" d="M-254.9,533.8l-35-35l-11.3,11.3l35,35c-4.2,8.9-2.8,19.9,4.6,27.2c4.7,4.7,10.8,7,17,7c6.2,0,12.3-2.3,17-7
	c9.4-9.4,9.4-24.6,0-33.9C-235,531-246,529.6-254.9,533.8z M-239,561c-3.1,3.1-8.2,3.1-11.3,0c-3.1-3.1-3.1-8.2,0-11.3
	c3.1-3.1,8.2-3.1,11.3,0C-235.8,552.9-235.8,557.9-239,561z"/>
<linearGradient id="SVGID_7_" gradientUnits="userSpaceOnUse" x1="-230.5193" y1="425.4807" x2="-173.5579" y2="368.5193">
	<stop  offset="0" style="stop-color:#E34E6B"/>
	<stop  offset="1" style="stop-color:#F8874C"/>
</linearGradient>
<path class="st6" d="M-179,373c-10.4,0-19.2,6.7-22.5,16H-251v16h49.5c3.3,9.3,12.1,16,22.5,16c13.2,0,24-10.8,24-24
	S-165.8,373-179,373z M-179,405c-4.4,0-8-3.6-8-8s3.6-8,8-8s8,3.6,8,8S-174.6,405-179,405z"/>
</svg>
