<?xml version="1.0" encoding="utf-8"?>
<!-- Generator: Adobe Illustrator 19.0.0, SVG Export Plug-In . SVG Version: 6.00 Build 0)  -->
<svg version="1.1" id="Layer_1" xmlns="http://www.w3.org/2000/svg" xmlns:xlink="http://www.w3.org/1999/xlink" x="0px" y="0px"
	 viewBox="-651 149 496 496" style="enable-background:new -651 149 496 496;" xml:space="preserve">
<style type="text/css">
	.st0{fill:url(#SVGID_1_);}
	.st1{fill:url(#SVGID_2_);}
	.st2{fill:url(#SVGID_3_);}
	.st3{fill:url(#SVGID_4_);}
	.st4{fill:url(#SVGID_5_);}
	.st5{fill:url(#SVGID_6_);}
	.st6{fill:url(#SVGID_7_);}
	.st7{fill:url(#SVGID_8_);}
	.st8{fill:url(#SVGID_9_);}
	.st9{fill:url(#SVGID_10_);}
	.st10{fill:url(#SVGID_11_);}
	.st11{fill:url(#SVGID_12_);}
</style>
<linearGradient id="SVGID_1_" gradientUnits="userSpaceOnUse" x1="-626.998" y1="621.002" x2="-162.0366" y2="156.0405">
	<stop  offset="0" style="stop-color:#E34E6B"/>
	<stop  offset="1" style="stop-color:#F8874C"/>
</linearGradient>
<path class="st0" d="M-179,149h-112c-13.2,0-24,10.8-24,24v53.4c-13.5-7-27.8-12.4-42.6-16l-7.1-29.4h-76.6l-7.1,29.4
	c-19.2,4.7-37.5,12.2-54.4,22.6l-25.8-15.8l-54.2,54.2l15.8,25.9c-10.3,16.9-17.9,35.2-22.6,54.4l-29.4,7.1v63.1
	c-18.2,3.7-32,19.9-32,39.2v112c0,22.1,17.9,40,40,40h40v16h-32v16h160v-16h-32v-16h110.3l7.1-29.4c19.2-4.7,37.5-12.2,54.4-22.6
	l25.8,15.8l54.2-54.2l-15.8-25.9c10.3-16.9,17.9-35.2,22.6-54.4l29.4-7.1V405h8c13.2,0,24-10.8,24-24V173
	C-155,159.8-165.8,149-179,149z M-291,165h112c4.4,0,8,3.6,8,8v24h-128v-24C-299,168.6-295.4,165-291,165z M-435,421h-52.6
	c-2.2-7.8-3.4-15.8-3.4-24c0-48.5,39.5-88,88-88s88,39.5,88,88c0,45.8-35.2,83.5-80,87.6V461C-395,438.9-412.9,421-435,421z
	 M-536.7,421c-1.4-7.9-2.3-15.9-2.3-24c0-75,61-136,136-136c32.4,0,63.4,11.6,88,32.5v48.4c-18.4-29.3-50.9-48.8-88-48.8
	c-57.3,0-104,46.7-104,104c0,8.1,1,16.2,2.9,24H-536.7z M-395,500.6c51.5-3.9,92.5-45.5,95.7-97.2c2.6,1,5.4,1.6,8.3,1.6h23.6
	c-4,68.6-59,123.6-127.6,127.6V500.6z M-299,213h128v112h-128V213z M-576.1,364.8l1.1-4.9c4.5-20.8,12.6-40.4,24.2-58.3l2.7-4.2
	l-14.5-23.6l36.3-36.3l23.6,14.5l4.2-2.7c17.9-11.6,37.5-19.7,58.3-24.2l4.9-1.1l6.5-26.9h51.4l6.5,26.9l4.9,1.1
	c17.9,3.8,35,10.6,50.9,19.8v28.4c-25.6-18.2-56.2-28.2-88-28.2c-83.8,0-152,68.2-152,152c0,8.1,0.7,16.1,1.9,24H-603v-49.7
	L-576.1,364.8z M-611,437h176c13.2,0,24,10.8,24,24v104h-224V461C-635,447.8-624.2,437-611,437z M-491,629h-64v-16h64V629z
	 M-611,597c-10.4,0-19.2-6.7-22.5-16h221c-3.3,9.3-12.1,16-22.5,16H-611z M-203,422.7l-26.9,6.5l-1.1,4.9
	c-4.5,20.8-12.6,40.4-24.2,58.3l-2.7,4.2l14.5,23.6l-36.3,36.3l-23.6-14.5l-4.2,2.7c-17.9,11.6-37.5,19.7-58.3,24.2l-4.9,1.1
	l-6.5,26.9h-25.9c5.1-6.7,8.2-15,8.2-24v-24.4c77.4-4.1,139.5-66.2,143.6-143.6h48.4V422.7z M-179,389h-112c-4.4,0-8-3.6-8-8v-40
	h128v40C-171,385.4-174.6,389-179,389z"/>
<linearGradient id="SVGID_2_" gradientUnits="userSpaceOnUse" x1="-247" y1="377" x2="-223" y2="353">
	<stop  offset="0" style="stop-color:#E34E6B"/>
	<stop  offset="1" style="stop-color:#F8874C"/>
</linearGradient>
<path class="st1" d="M-251,357h32v16h-32V357z"/>
<linearGradient id="SVGID_3_" gradientUnits="userSpaceOnUse" x1="-603" y1="197" x2="-587" y2="181">
	<stop  offset="0" style="stop-color:#E34E6B"/>
	<stop  offset="1" style="stop-color:#F8874C"/>
</linearGradient>
<path class="st2" d="M-603,181h16v16h-16V181z"/>
<linearGradient id="SVGID_4_" gradientUnits="userSpaceOnUse" x1="-603" y1="229" x2="-587" y2="213">
	<stop  offset="0" style="stop-color:#E34E6B"/>
	<stop  offset="1" style="stop-color:#F8874C"/>
</linearGradient>
<path class="st3" d="M-603,213h16v16h-16V213z"/>
<linearGradient id="SVGID_5_" gradientUnits="userSpaceOnUse" x1="-619" y1="213" x2="-603" y2="197">
	<stop  offset="0" style="stop-color:#E34E6B"/>
	<stop  offset="1" style="stop-color:#F8874C"/>
</linearGradient>
<path class="st4" d="M-619,197h16v16h-16V197z"/>
<linearGradient id="SVGID_6_" gradientUnits="userSpaceOnUse" x1="-587" y1="213" x2="-571" y2="197">
	<stop  offset="0" style="stop-color:#E34E6B"/>
	<stop  offset="1" style="stop-color:#F8874C"/>
</linearGradient>
<path class="st5" d="M-587,197h16v16h-16V197z"/>
<linearGradient id="SVGID_7_" gradientUnits="userSpaceOnUse" x1="-219" y1="581" x2="-203" y2="565">
	<stop  offset="0" style="stop-color:#E34E6B"/>
	<stop  offset="1" style="stop-color:#F8874C"/>
</linearGradient>
<path class="st6" d="M-219,565h16v16h-16V565z"/>
<linearGradient id="SVGID_8_" gradientUnits="userSpaceOnUse" x1="-219" y1="613" x2="-203" y2="597">
	<stop  offset="0" style="stop-color:#E34E6B"/>
	<stop  offset="1" style="stop-color:#F8874C"/>
</linearGradient>
<path class="st7" d="M-219,597h16v16h-16V597z"/>
<linearGradient id="SVGID_9_" gradientUnits="userSpaceOnUse" x1="-235" y1="597" x2="-219" y2="581">
	<stop  offset="0" style="stop-color:#E34E6B"/>
	<stop  offset="1" style="stop-color:#F8874C"/>
</linearGradient>
<path class="st8" d="M-235,581h16v16h-16V581z"/>
<linearGradient id="SVGID_10_" gradientUnits="userSpaceOnUse" x1="-203" y1="597" x2="-187" y2="581">
	<stop  offset="0" style="stop-color:#E34E6B"/>
	<stop  offset="1" style="stop-color:#F8874C"/>
</linearGradient>
<path class="st9" d="M-203,581h16v16h-16V581z"/>
<linearGradient id="SVGID_11_" gradientUnits="userSpaceOnUse" x1="-583" y1="505" x2="-495" y2="417">
	<stop  offset="0" style="stop-color:#E34E6B"/>
	<stop  offset="1" style="stop-color:#F8874C"/>
</linearGradient>
<path class="st10" d="M-619,453h160v16h-160V453z"/>
<linearGradient id="SVGID_12_" gradientUnits="userSpaceOnUse" x1="-443" y1="469" x2="-427" y2="453">
	<stop  offset="0" style="stop-color:#E34E6B"/>
	<stop  offset="1" style="stop-color:#F8874C"/>
</linearGradient>
<path class="st11" d="M-443,453h16v16h-16V453z"/>
</svg>
