<?xml version="1.0" encoding="utf-8"?>
<!-- Generator: Adobe Illustrator 19.0.0, SVG Export Plug-In . SVG Version: 6.00 Build 0)  -->
<svg version="1.1" id="Layer_2" xmlns="http://www.w3.org/2000/svg" xmlns:xlink="http://www.w3.org/1999/xlink" x="0px" y="0px"
	 viewBox="-599 247 600 300" enable-background="new -599 247 600 300" xml:space="preserve">
<g id="layer1" transform="translate(318.14288,-101.64789)" inkscape:label="Layer 1" inkscape:groupmode="layer">
	<rect id="rect2864" x="-917.1" y="357.2" fill="#FFFFFF" width="600" height="277.8"/>
	<path id="rect2860" fill="#19B619" d="M-909.7,357.2h585c4.2,0,7.6,3.4,7.6,7.6v85h-600v-85.2
		C-917.1,360.5-913.8,357.2-909.7,357.2z"/>
	<path id="rect2862" fill="#F16765" d="M-916.5,542.3h599.3v85.1c0,4.1-3.3,7.4-7.4,7.4h-584.3c-4.2,0-7.6-3.4-7.6-7.6V542.3z"/>
	<g id="g2988" transform="matrix(1.1891449,0,0,1.1891449,399.69523,190.57453)">
	</g>
	<g id="g2996" transform="matrix(1.1891449,0,0,1.1891449,402.95144,258.79007)">
	</g>
	<g id="g2444" transform="matrix(1.301196,0,0,1.301196,307.43621,287.43928)">
	</g>
	<g id="g2446" transform="matrix(1.301196,0,0,1.301196,310.99925,362.08266)">
	</g>
	<g id="g2984" transform="matrix(1.1891449,0,0,1.1891449,473.45902,466.25895)">
	</g>
	<g id="g8909" transform="matrix(0.59833794,0,0,0.59833794,512.56224,147.46994)">
		<g id="g8198" transform="translate(-211.23238,218.82863)">
		</g>
		<g id="g3437" transform="translate(-214.26214,218.82863)">
			<g id="g3351">
				<g id="g4032" transform="matrix(0.88589821,0,0,0.88589821,59.304729,-35.612069)">
					<path id="path4034" sodipodi:nodetypes="csscsscc" inkscape:connector-curvature="0" fill="#F6B721" stroke="#000000" d="
						M-2046.3,451.3c0,0-2.7-28.8,3.1-46.4c4-12.2,10.1-22.2,20-30.3c15.4-12.7,39.3-16.1,56-8.4c-14.7,0.8-34.3,5.7-44.9,14.6
						c-8.1,6.8-14.5,16.3-17.7,26.5c-5.3,17.2-2.7,44.9-2.7,44.9L-2046.3,451.3z"/>
					<path id="path4036" sodipodi:nodetypes="sccscs" inkscape:connector-curvature="0" d="M-2035.9,404.2
						c-4.9,14.9-5,31.4-4.5,45.6l1.8-0.1c-0.5-14.1-0.4-30.3,4.4-44.9c4.8-14.6,14.1-27.5,32.3-35.2
						C-2023.5,374.5-2033.3,396.5-2035.9,404.2z"/>
				</g>
				<rect id="rect4046" x="-1753.6" y="361.8" fill="#F6B721" stroke="#000000" width="11.7" height="26.2"/>
				<g id="g4050" transform="matrix(5.2941999,0,0,4.822969,-1068.4839,-764.28781)">
					
						<path id="path4052" sodipodi:nodetypes="ccssccssssscc" inkscape:connector-curvature="0" fill="#F6B721" stroke="#000000" stroke-width="0.7" d="
						M-119.5,243.2c-1.3-0.4-2.5,0.2-5.2-3.7c0,0-1.2,0.4-1.8,0.4c-0.3,0-0.6,0-0.9-0.1c-0.5-0.2-1.5-0.9-1.5-0.9l-0.2-2.3
						c0,0-0.5-0.1-0.6-0.3c-0.1-0.2-0.1-0.5,0-0.7c0.2-0.3,0.5-0.3,0.8-0.4c0.6-0.2,1.4-0.2,2,0c0.6,0.1,1,0.4,1.6,0.6
						c1.7,0.6,5.4,0.9,5.4,0.9L-119.5,243.2z"/>
					
						<path id="path4054" sodipodi:nodetypes="csscsssc" inkscape:connector-curvature="0" fill="#F6B721" stroke="#000000" stroke-width="0.7" d="
						M-129.5,238.5c0,0,0.9,0,1.3,0c0.3,0,0.6-0.2,0.9-0.1c0.2,0.1,0.4,0.5,0.4,0.5s-0.3,0.4-0.5,0.5c-0.6,0.2-1.5,0.3-2-0.1
						c-0.1-0.1-0.2-0.3-0.2-0.5C-129.7,238.7-129.5,238.5-129.5,238.5z"/>
					
						<path id="path4056" sodipodi:nodetypes="csscsssc" inkscape:connector-curvature="0" fill="#F6B721" stroke="#000000" stroke-width="0.7" d="
						M-129.6,237.6c0,0,0.9,0,1.3,0c0.3,0,0.7-0.3,1.1-0.1c0.2,0.1,0.4,0.5,0.4,0.5s-0.3,0.4-0.5,0.5c-0.6,0.2-1.6,0.4-2.2,0
						c-0.1-0.1-0.2-0.3-0.2-0.5C-129.7,237.8-129.6,237.6-129.6,237.6z"/>
					
						<path id="path4058" sodipodi:nodetypes="csscsssc" inkscape:connector-curvature="0" fill="#F6B721" stroke="#000000" stroke-width="0.7" d="
						M-129.6,236.6c0,0,0.9,0,1.3,0c0.3,0,0.7-0.3,1.1-0.1c0.2,0.1,0.4,0.5,0.4,0.5s-0.3,0.4-0.5,0.5c-0.6,0.2-1.6,0.4-2.2,0
						c-0.1-0.1-0.2-0.3-0.2-0.5C-129.7,236.8-129.6,236.6-129.6,236.6L-129.6,236.6z"/>
				</g>
				<path id="path4098" sodipodi:nodetypes="ccccccccccccc" inkscape:connector-curvature="0" fill="#F6B721" stroke="#000000" d="
					M-1740.8,365.3h6.1l3.8-2.5l-3.8-2.6h-6.1l-6.7-2.1l-6.7,2.1h-6.5l-3.8,2.6l3.8,2.5h6.5l6.7,2.5L-1740.8,365.3z"/>
			</g>
			<path id="path4038" inkscape:connector-curvature="0" fill="#F6B721" stroke="#000000" d="M-1643.2,289.1c-1,0-1.9,0-2.9,0.1
				l0.9,52.6l-7.8-35.1c-2,0.3-4,0.8-6,1.3l10,35.9l-21.6-49.8c-2,0.8-4,1.6-5.9,2.5l23.8,50.1l-22.1-32.1c-1.7,1-3.4,2.1-5,3.3
				l21.1,27.6l-37.8-35.5c-1.5,1.4-3,2.9-4.4,4.4l40.3,35.6l-32-19.4c-1.1,1.5-2.2,3.1-3.2,4.8l38,20.6l1.5-2.3l0.7,0.6l3.1-2.9
				l1.5-1v0.1l3.4-1.3v0.1l2.9-0.7h2.9l3,0.7v-0.1l3.4,1.3v-0.1l1.5,1l3.1,2.9l0.7-0.6l1.1,1.7l-0.8,0.3l1.6,3.6l0.9,3.6l43.5-7.8
				c-0.3-1.9-0.6-3.7-1.1-5.5l-42.6,9.6l56.9-20.5c-0.7-1.9-1.4-3.7-2.3-5.5l-50.9,20.1l33-17.9c-1-1.7-2-3.3-3.2-4.8l-31.9,19.3
				l40.3-35.5c-1.4-1.5-2.8-3-4.3-4.3l-37.7,35.5l21.1-27.6c-1.6-1.2-3.3-2.3-5-3.3l-19.9,28.9l-0.5-0.3l22.2-46.7
				c-1.9-0.9-3.9-1.7-5.9-2.5l-20.4,47l-0.3-0.2l9.2-32.9c-2-0.5-4-1-6.1-1.3l-7.2,32.1l0.9-49.7
				C-1640.8,289.1-1642,289.1-1643.2,289.1z"/>
			<path id="path4040" inkscape:connector-curvature="0" fill="#F6B721" stroke="#000000" d="M-1643.2,335
				c-17,0-30.9,12.5-30.9,28.2s13.9,28.2,30.9,28.2c17,0,31-12.6,31-28.2S-1626.3,335-1643.2,335L-1643.2,335z"/>
			<g id="g4060" transform="matrix(5.2941999,0,0,4.822969,-1066.4839,-776.28781)">
				<g id="g4062">
					
						<path id="path4064" sodipodi:nodetypes="ccssscsssccccccssscccc" inkscape:connector-curvature="0" fill="#F6B721" stroke="#000000" stroke-width="0.7" d="
						M-107.5,246.5c-0.7,1.3,0.3,2.4-0.3,3.4c0,0-1.1-0.2-1.7-0.2c-0.4,0-1,0-1.3,0.2c-0.6,0.3-1.1,0.7-1.4,1.2
						c-0.5,0.9,0.1,1.7,1,1.2c0.8,0.8,1.8,0.3,3-0.2c0.2-0.1,0.6,0,0.9,0.1c0.3,0.1,0.7,0.1,1,0c0.7-0.3,1.2-1.2,1.6-2.6l0.7,0.3
						c0-0.6-0.2-1.1-0.6-1.5l0.8,0.3c0-0.6-0.3-1-0.5-1.4l0.8,0.3c0,0-0.1-0.3-0.1-0.8c0-0.3,0.1-0.7,0-0.9
						c-0.1-0.3-0.2-0.5-0.3-0.7c-0.1-0.2-0.1-0.6-0.1-0.6c-2.4-1.1-1.9-3.8-1.4-5l-4.5,3.4C-110.9,243.8-109.6,246.1-107.5,246.5
						L-107.5,246.5z"/>
					<path id="path4066" inkscape:connector-curvature="0" d="M-107.4,244.3c-0.3-0.1-0.8-0.4-0.9-0.9l0.3-0.8
						C-108.1,243.4-107.5,244.1-107.4,244.3L-107.4,244.3z M-107.9,244.7c-0.3-0.1-0.8-0.4-0.9-0.9l0.3-0.8
						C-108.6,243.9-108,244.6-107.9,244.7L-107.9,244.7z M-108.3,245.3c-0.3-0.1-0.8-0.4-0.9-0.9l0.3-0.8
						C-109,244.5-108.5,245.1-108.3,245.3L-108.3,245.3z M-108.9,250.6c0,0-0.7,0-1.1,0c-0.3,0-0.5,0.2-0.8,0.3
						c-0.3,0.2-0.6,0.4-0.7,0.8c0,0.2,0,0.3,0,0.5c0,0.1,0.1,0.2,0.1,0.2l0.3-0.1c0,0,0-0.1-0.1-0.2c0-0.1,0-0.2,0-0.3
						c0.1-0.2,0.3-0.4,0.5-0.6C-110,250.7-109.4,250.8-108.9,250.6L-108.9,250.6z M-106.5,250.5c0.2-0.4,0.7-0.8,0.8-1.3
						c0.1-0.5,0.2-1,0-1.4C-106,247.9-106.6,250.4-106.5,250.5L-106.5,250.5z M-104.8,246.5c-0.1,0.5-0.8,0.5-1.2,0.4
						c-0.3-0.1-0.6-0.6-0.4-1C-106.2,246.5-105.4,246.7-104.8,246.5z M-104.7,245.3c-0.1,0.5-0.8,0.5-1.2,0.4
						c-0.3-0.1-0.6-0.6-0.4-1C-106.1,245.2-105.3,245.5-104.7,245.3z"/>
				</g>
				<g id="g4068">
					
						<path id="path4070" sodipodi:nodetypes="cssscsssssssscccscccscccsscccccccccccsssccccccscccsccccccccscccsssssssssccccc" inkscape:connector-curvature="0" fill="#F6B721" stroke="#000000" stroke-width="0.7" d="
						M-93.4,225.7c0.1,0.7-0.1,1.2-0.5,1.4c-0.5,0.3-1,0.1-1.5-0.3c-0.6-0.6-1-1.3-1.5-1.8c-0.7-0.6-1.5-0.8-2.2-0.7
						s-1.3,0.4-1.8,0.9c-0.9,1-1.1,2.8-0.2,4.2c0.9,1.4,3.5,2.3,4.5,3.2c0.9,0.7,1.3,1.2,1.5,1.8c0.2,0.5,0.2,1.2,0,1.9
						c-0.3,0.8-1.1,1.2-2.2,1.2c-1.5,0-3-1.4-4.4-1.6c-2.8-0.4-3.5,0.7-6.1,0.8c-5.1,0.1-7.2-1.6-7.2-1.6l-5.5,7
						c-1.7,0.7-1.8,3.2,0,4.6c-0.5,0.3-1,1-1.2,1.5c-0.3,0.7-0.5,1.1-0.9,1.6c0,0-1.1-0.2-1.7-0.2c-0.4,0-1,0-1.3,0.2
						c-0.6,0.3-1.1,0.7-1.4,1.2c-0.5,0.9,0.1,1.7,1,1.2c0.8,0.8,1.8,0.3,3-0.1c0.2-0.1,0.6,0,0.9,0.1c0.3,0.1,0.7,0.1,1,0
						c0.7-0.3,1-1.1,1.5-1.7c0.2-0.3,0.7-0.8,0.7-0.8l0.4,0.6c0.3-0.5,0.3-1,0.2-1.5l0.6,0.7c0.3-0.5,0.3-1,0.2-1.4l0.5,0.7
						c0,0,0.1-0.3,0.3-0.7c0.1-0.3,0.4-0.6,0.5-0.8c0.1-0.3,0.1-0.8,0.1-0.8c0.3,0.3,0.5,0.4,0.9,0.4c0.1-0.6,0.1-0.8,0.2-1.1
						c2-0.1,3.8-0.4,5.5-1.1c1.3-0.5,2.4-1.2,3.4-2.2c0.3-0.3,0.5-0.4,0.7-0.7c0.2-0.3,1.3-0.1,1.8,0.1c0.3,0.1,0.6,0.5,0.6,0.5
						c0.4,1.2,1.4,3.9,4.1,4.5c-0.7,1.3,0.3,2.4-0.3,3.4c0,0-1.1-0.2-1.7-0.3c-0.4,0-1,0-1.3,0.2c-0.6,0.3-1.2,0.7-1.4,1.2
						c-0.5,0.9,0.1,1.7,1,1.2c0.8,0.8,1.8,0.3,3-0.2c0.2-0.1,0.6,0,0.9,0.1c0.3,0.1,0.7,0.1,1,0c0.7-0.3,1.2-1.2,1.6-2.6l0.7,0.3
						c0-0.6-0.2-1-0.5-1.5l0.8,0.3c0-0.6-0.3-1-0.5-1.4l0.8,0.3c0,0-0.1-0.3-0.1-0.8c0-0.3,0.1-0.7,0-0.9c-0.1-0.3-0.2-0.5-0.3-0.7
						c-0.1-0.2-0.1-0.6-0.1-0.6c-1.4-0.7-1.7-1.9-1.8-3c0-1.4-0.2-2.2-1.1-3.1c0.3-0.1,0.6,0,0.9,0c1.7,0,3.1-0.9,3.5-2.1
						c0.3-0.9,0.3-1.8-0.1-2.6c-0.5-1.1-1-1.5-2-2.3c-1.1-0.9-3.7-1.9-4.3-3c-0.7-1.1-0.5-2.3,0.1-3c0.6-0.7,1.6-1,2.6-0.1
						c0.6,0.5,1,1.3,1.5,1.8c0.6,0.6,1.7,1,2.6,0.4c0.9-0.6,1.1-1.5,1-2.3c0.2-0.6,0.7-1.2,1.7-1.2c-0.3-0.6-1.7-1.3-2.3,0.1
						c-0.7-1.1-2.1-0.5-2.3,0.5C-94.8,224.7-94,225-93.4,225.7z"/>
					<g id="g4072">
					</g>
					<g id="g4074">
					</g>
					<path id="path4076" inkscape:connector-curvature="0" d="M-100.4,237.7c0.6-0.1,1.3,0.3,1.9,0.6c0.4,0.2,0.7,0.1,0.9,0.2
						l-0.6,0.1l0.7,1.4C-97.8,239.3-99.7,237.9-100.4,237.7L-100.4,237.7z M-101.9,241.7c0.2,1.2,0.5,2.2,1.2,2.9
						c0.7,0.7,1.6,1.2,2.7,1.4c-0.4-0.7-1.8-1.2-2.4-1.8C-101.2,243.5-101.3,242.2-101.9,241.7z M-98.3,249.7
						c0.2-0.4,0.5-0.9,0.6-1.4c0.1-0.5,0-1-0.2-1.4C-98.2,247.1-98.4,249.6-98.3,249.7z M-102.4,241.1c0.3-0.4-0.3-0.9-0.7-1
						c-0.3-0.1-0.8,0.1-0.9,0.5C-103.5,240.3-102.8,240.6-102.4,241.1L-102.4,241.1z M-110,240.7c0.2,0.9,2.8,2.1,3.3,1.8l0.7-0.5
						C-106.9,242.6-109.3,241.6-110,240.7L-110,240.7z M-111.3,240.9c0,0.7,2.8,2.5,3.5,2.4l0.8-0.4
						C-108,243.4-111.2,241.4-111.3,240.9L-111.3,240.9z M-111.9,241.8c0.1,0.9,2.4,2.4,3,2.1l0.8-0.4
						C-109.4,243.9-111.5,242.7-111.9,241.8L-111.9,241.8z M-112.6,242.6c-0.1,0.7,1.4,1.8,2.1,2l0.8-0.3
						C-110.7,244.5-112.4,243.4-112.6,242.6L-112.6,242.6z M-113.8,242.8c-0.1,0.6,1.2,2.1,1.7,2.2l0.8-0.2
						C-112,245-113.7,243.3-113.8,242.8L-113.8,242.8z M-114.4,243.7c0,0.3,0.3,1.2,0.9,1.5l0.9-0.1
						C-113.8,245-114.3,244-114.4,243.7L-114.4,243.7z M-115.5,244.3c0,0.3,0.1,0.9,0.5,1.2l0.9,0
						C-115,245.2-115.4,244.5-115.5,244.3L-115.5,244.3z M-119.6,245.5c0.1,0.5,0.8,0.5,1.2,0.4c0.3-0.1,0.6-0.6,0.4-1
						C-118.2,245.4-119,245.7-119.6,245.5z M-119.6,246.7c0.1,0.5,0.8,0.5,1.2,0.4c0.3-0.1,0.6-0.6,0.4-1
						C-118.2,246.6-119,246.9-119.6,246.7z M-121.6,250.2c0.4-0.2,0.9-0.5,1.2-0.9c0.3-0.4,0.5-0.9,0.5-1.3
						C-120.2,248-121.7,250.1-121.6,250.2z M-100.4,250.6c0,0-0.7,0-1.1,0c-0.3,0-0.5,0.2-0.8,0.3c-0.3,0.2-0.6,0.4-0.7,0.8
						c0,0.2,0,0.3,0,0.5c0,0.1,0.1,0.2,0.1,0.2l0.3-0.1c0,0,0-0.1-0.1-0.2c0-0.1,0-0.2,0-0.3c0.1-0.2,0.3-0.4,0.5-0.6
						C-101.5,250.7-100.9,250.8-100.4,250.6L-100.4,250.6z M-123.8,250.2c0,0-0.7,0-1.1,0c-0.3,0-0.5,0.2-0.8,0.3
						c-0.3,0.2-0.6,0.4-0.7,0.8c0,0.2,0,0.3,0,0.5c0,0.1,0.1,0.2,0.1,0.2l0.3-0.1c0,0,0-0.1-0.1-0.2c0-0.1,0-0.2,0-0.3
						c0.1-0.2,0.3-0.4,0.5-0.6C-124.8,250.4-124.3,250.5-123.8,250.2L-123.8,250.2z"/>
				</g>
				<g id="g4078">
					<g id="g4080">
						
							<path id="path4082" sodipodi:nodetypes="ccccccccccccccccccccc" inkscape:connector-curvature="0" fill="#F6B721" stroke="#000000" stroke-width="0.7" d="
							M-114.3,238.8l-0.4,0.2c-2.9,1.1-5.1,1.1-7.9,0l-0.4,1.2c-0.3,1.3-0.1,2.5,0.3,3.4c0.3-0.1,0.5-0.4,0.8-0.7
							c0.1,0.5,0.1,1.1,0.5,1.6c0.5-0.3,0.9-0.7,1.1-1c0.1,0.6,0.3,1.1,0.8,1.4c0.5-0.3,0.7-0.8,0.8-1.4c0.2,0.3,0.5,0.8,1.1,1.1
							c0.5-0.5,0.5-0.8,0.6-1.3c0.2,0.5,0.5,0.8,1.1,1.1c0.5-0.5,0.4-1.2,0.5-1.6c0.2,0.4,0.5,0.6,0.8,0.7c0.2-0.3,0.4-0.9,0.4-1.4
							c0.4,0.3,0.8,0.4,1.1,0.5c0.1-0.6,0.1-1.1,0-1.7c0.4,0.1,0.5,0.3,1,0.3c0.3-1.3-0.1-2.6-1.2-3.6L-114.3,238.8z"/>
						<path id="path4084" inkscape:connector-curvature="0" d="M-112.3,241.1l-0.7,0l-0.2,0.4c0-0.6-0.3-1.2-0.4-1.5
							C-113.4,240.4-113,240.8-112.3,241.1L-112.3,241.1z M-113.6,242.4l-0.6-0.2l-0.3,0.4c0.1-0.6,0-1.6-0.1-1.9
							C-114.4,241-114.1,242-113.6,242.4L-113.6,242.4z M-115.1,243.1l-0.3-0.2l-0.3,0.4c0.1-0.6-0.1-1.8-0.1-2.1
							C-115.7,241.5-115.3,242.7-115.1,243.1z M-116.7,243.6l-0.3-0.2l-0.3,0.4c0.1-0.6,0.1-1.7,0.1-2
							C-117.1,242.2-116.9,243.2-116.7,243.6z M-118.4,243.8l-0.3-0.2l-0.3,0.4c0.1-0.6,0.1-1.7,0.1-2
							C-118.8,242.4-118.6,243.4-118.4,243.8z M-120.8,243.9l0.3-0.2l0.3,0.4c-0.1-0.6-0.1-1.4-0.1-1.7
							C-120.3,242.7-120.6,243.5-120.8,243.9z M-122.3,243.2l0.3-0.2l0.3,0.4c-0.1-0.6-0.1-1.4-0.1-1.7
							C-121.9,242.1-122.1,242.8-122.3,243.2z"/>
					</g>
					<g id="g4086">
						
							<path id="path4088" sodipodi:nodetypes="csccccccccccccccccccccc" inkscape:connector-curvature="0" fill="#F6B721" stroke="#000000" stroke-width="0.7" d="
							M-123.5,235.2c0,0-1.1,1.9-1.3,2.8c-0.1,0.6-0.1,1.6-0.1,1.6c0.3,0,0.7-0.1,1-0.4c0,0.5,0,1.1,0.3,1.6
							c0.3-0.1,0.8-0.3,1.1-0.9c0,0.7,0.1,1,0.5,1.7c0.4-0.1,0.8-0.7,1.1-1c0,0.5,0.1,1,0.6,1.7c0.6-0.3,0.9-1.1,1-1.6
							c0.1,0.4,0.5,1.2,1,1.6c0.4-0.7,0.5-1.2,0.6-1.7c0.3,0.4,0.7,0.9,1.1,1c0.4-0.6,0.5-1,0.5-1.7c0.3,0.6,0.8,0.8,1.1,0.9
							c0.3-0.5,0.3-1.1,0.3-1.6c0.3,0.3,0.8,0.6,1.2,0.7c0.1-0.1,0.3-1,0.2-1.5c0.4,0.3,0.7,0.6,1.3,0.6c0.1-0.5,0-1-0.1-1.5
							c0.6,0.2,1.3,0.3,1.8,0c-1.2-2.2-3-2.5-5-2.9C-117.4,236.5-120.1,236.9-123.5,235.2L-123.5,235.2z"/>
						<path id="path4090" inkscape:connector-curvature="0" d="M-111.3,237.5l-0.4,0l-0.1,0.5c-0.2-0.6-0.6-1.4-0.7-1.7
							c0.2,0.3,1,1.1,1.7,1.2L-111.3,237.5z M-112.6,238.6l-0.5-0.3l0.1,0.8c-0.2-0.6-0.5-1.4-0.6-1.7
							C-113.4,237.6-112.9,238.3-112.6,238.6L-112.6,238.6z M-114,239.6l-0.5-0.4l-0.1,0.8c-0.1-0.6-0.2-1.5-0.3-1.8
							C-114.7,238.5-114.3,239.3-114,239.6z M-115.5,240.2l-0.4-0.2l-0.2,0.5c0-0.6-0.1-1.5-0.1-1.8
							C-116,239-115.8,239.8-115.5,240.2L-115.5,240.2z M-118.8,241l-0.3-0.3l-0.3,0.4c0.1-0.6,0.3-1.5,0.3-1.8
							C-119.1,239.6-119,240.5-118.8,241z M-117.2,240.7l-0.4-0.2l-0.2,0.5c0-0.6-0.1-1.5-0.1-1.8
							C-117.7,239.5-117.4,240.3-117.2,240.7L-117.2,240.7z M-121.2,240.8l0.4-0.2l0.2,0.5c0-0.6,0.1-1.5,0.1-1.8
							C-120.6,239.6-120.9,240.4-121.2,240.8L-121.2,240.8z M-122.8,240.2l0.4-0.2l0.2,0.5c0-0.6,0.1-1.7,0.2-2
							C-122.2,238.8-122.6,239.8-122.8,240.2L-122.8,240.2z M-124.2,239.4l0.4-0.1l0.2,0.5c0.1-0.6,0.2-1.3,0.3-1.7
							C-123.5,238.4-123.9,239-124.2,239.4L-124.2,239.4z"/>
					</g>
					<g id="g4092">
						
							<path id="path4094" sodipodi:nodetypes="cccccscscccccccscscccccscccccccccccccccccccccsscc" inkscape:connector-curvature="0" fill="#F6B721" stroke="#000000" stroke-width="0.7" d="
							M-114.5,233.3c0.4,0.1,0.5,0,0.9,0c-0.2-1-0.3-1.3-1.1-2c0.6,0.2,0.7,0,1,0c-0.8-1.5-0.7-2.9-1.8-3.7c0.4-1,0.1-1.2-0.2-2.1
							c-0.1-0.2,0-0.7,0-0.7s-1,0.2-1.4,0.7c-0.2,0.3-0.5,0.6-0.5,0.6c0.1-0.6,0-0.8-0.4-1.2c-0.2,0.2-0.4,0.8-0.6,1
							c-0.1-0.5-0.2-0.9-0.6-1.2c-0.4,0.3-0.6,0.7-0.6,1.2c-0.2-0.2-0.4-0.8-0.6-1c-0.4,0.4-0.5,0.6-0.4,1.2c0,0-0.3-0.4-0.5-0.6
							c-0.4-0.5-1.4-0.7-1.4-0.7s0,0.5,0,0.7c-0.1,0.5-0.7,1.2-0.2,2.1c-1.4,1-1.1,2.4-1.9,3.8c0.4,0,0.4,0.2,1,0
							c-0.8,0.7-0.8,0.8-1.1,1.8c0.3-0.1,0.5,0,1.1-0.2c-0.2,0.4-0.6,0.7-0.8,1c-0.5,0.5-0.8,1-0.9,1.6c0.4,0,0.7-0.1,1.1-0.2
							c-0.1,0.5-0.2,0.8,0,1.5c0.5-0.2,0.8-0.4,1.2-0.7c0,0.4-0.1,0.9,0.1,1.4c0.4-0.1,0.7-0.3,1.1-0.7c0,0.6,0.1,1,0.3,1.3
							c0.3-0.2,0.7-0.4,0.9-0.7c0.1,0.4,0.1,0.7,0.5,1.3c0.6-0.3,0.7-0.6,0.9-1c0.1,0.3,0.2,0.7,0.7,1.2c0.6-0.4,0.5-0.8,0.7-1.2
							c0.1,0.3,0.4,0.8,0.8,1c0.3-0.4,0.4-0.9,0.5-1.2c0.3,0.4,0.6,0.7,1.1,0.9c0.2-0.5,0.3-0.9,0.2-1.3c0.4,0.5,0.8,0.6,1.2,0.7
							c0.1-0.4,0.1-0.9,0-1.3c0.4,0.3,0.9,0.5,1.3,0.4c0-0.5-0.1-0.9-0.3-1.3c0.4,0.1,0.8,0.1,1.2,0c0,0-0.2-0.6-0.5-0.9
							c-0.4-0.4-0.9-0.6-1.3-1C-114,233.8-114.5,233.3-114.5,233.3L-114.5,233.3z"/>
						
							<path id="path4096" sodipodi:nodetypes="ccccscccccccscccccsccscccccccccccccscccccccccccccsccscscccscsscccccccscsccscsscsccccccscsccccccsccscsscccscccccccsscscccsccccccccccccccssscccccccccccccccccccccccccccccccccccccccccccccccccccccccc" inkscape:connector-curvature="0" d="
							M-122.1,225.7c0,0,0,0.3,0,0.5c-0.1,0.3-0.2,0.6-0.3,0.9c0,0.2,0.2,0.7,0.2,0.7s0.1-0.5,0.4-0.6c0.2-0.1,0.7,0.1,0.7,0.1
							s0-0.5-0.1-0.7C-121.3,226.3-122.1,225.7-122.1,225.7L-122.1,225.7z M-116.1,225.7c0,0-0.8,0.5-1,0.9
							c-0.1,0.2-0.1,0.7-0.1,0.7s0.5-0.2,0.7-0.1c0.2,0.1,0.4,0.6,0.4,0.6s0.2-0.4,0.2-0.7c0-0.3-0.2-0.6-0.2-0.9
							C-116.1,226.1-116.1,225.7-116.1,225.7z M-122.4,228.6c-0.4,0.2-0.5,0.7-0.4,1c0.1,0.3,0.3,0.5,0.6,0.6c0,0,0,0,0,0
							c-0.1,0.1-0.3,0.3-0.3,0.5c-0.2,0.9-0.1,1.7,0.4,2.2c-0.3,0.4-0.7,1.2-0.9,1.7c0.4-0.4,0.9-1.1,1.2-1.5
							c0.1,0.1,0.3,0.2,0.5,0.3c-0.2,0.4-0.5,1.4-0.7,1.9c0.4-0.5,0.7-1.3,1-1.8c0.1,0,0.3,0.1,0.4,0.1c-0.1,0.3-0.1,0.6,0.1,0.9
							c-0.2,0.4-0.6,1.4-0.7,1.9c0.4-0.4,0.7-1.2,0.9-1.6c0.1,0.1,0.3,0.2,0.5,0.3c-0.1,0.5-0.2,1.4-0.2,1.9
							c0.2-0.5,0.4-1.3,0.5-1.8c0.1,0,0.2,0,0.3,0c0.1,0,0.1,0,0.2,0c0.1,0.5,0.2,1.3,0.3,1.8c0-0.5,0-1.4,0-1.9
							c0.2,0,0.3-0.1,0.4-0.2c0.2,0.5,0.4,1.3,0.8,1.8c-0.1-0.6-0.3-1.6-0.5-2c0,0,0.1-0.1,0.1-0.1c0.2-0.2,0.2-0.5,0.2-0.8
							c0.4,0.4,1.1,1.1,1.6,1.4c-0.3-0.4-1-1.3-1.4-1.6c0.4-0.1,0.7-0.2,1-0.4c0.4,0.4,1.2,1.4,1.8,1.8c-0.3-0.5-1.2-1.7-1.5-2
							c0.5-0.5,0.6-1.3,0.4-2.2c-0.1-0.2-0.2-0.4-0.3-0.5c0,0,0,0,0,0c0.3-0.1,0.5-0.3,0.6-0.6c0.1-0.4,0-0.8-0.4-1
							c0.1,0.3,0.2,0.6,0.1,0.9c-0.1,0.2-0.3,0.4-0.6,0.5l-0.4,0.1l0.3,0.2c0,0,0.1,0.1,0.2,0.2c0.1,0.1,0.2,0.3,0.2,0.3
							c0.2,0.8,0,1.4-0.4,1.9c-0.4,0.5-1.1,0.8-1.8,0.7c-0.5-0.1-0.5-0.2-0.5-0.7c0.1,0,0.2,0,0.3-0.1c0.1-0.1,0.1-0.1,0.2-0.2
							c0-0.1,0.1-0.1,0.1-0.1c0.1-0.1,0.3,0,0.3,0l0.2,0l0-0.2c0-0.2,0-0.3-0.1-0.5c-0.1-0.2-0.2-0.3-0.3-0.4
							c-0.1,0-0.1-0.1-0.1-0.1c0,0,0,0,0,0c-0.1-0.5-0.2-1,0-1.5c0.1-0.3,0.3-0.5,0.7-0.5c0.4-0.1,0.8,0.1,1,0.1
							c-0.2-0.3-0.6-0.5-1.1-0.4c-0.4,0.1-0.8,0.4-0.9,0.8c-0.1,0.5-0.1,1.1,0,1.6c0,0.1,0.1,0.2,0.1,0.2c0,0,0.1,0.1,0.1,0.1
							c0.1,0.1,0.2,0.1,0.2,0.3c0.1,0.1,0,0.1,0,0.2c-0.1,0-0.2-0.1-0.3,0c-0.1,0.1-0.2,0.1-0.2,0.2c0,0.1-0.1,0.1-0.1,0.1
							c0,0-0.1,0-0.2,0.1c-0.1,0-0.1,0-0.1,0s-0.1,0-0.1,0c-0.1,0-0.2,0-0.2-0.1c0,0,0,0-0.1-0.1c0-0.1-0.1-0.2-0.2-0.2
							c-0.2-0.1-0.2,0-0.3,0c0-0.1,0-0.1,0-0.2c0.1-0.2,0.2-0.2,0.2-0.3c0,0,0.1-0.1,0.1-0.1c0,0,0.1-0.1,0.1-0.2
							c0.1-0.6,0.2-1.1,0-1.6c-0.1-0.4-0.5-0.7-0.9-0.8c-0.5-0.1-0.9,0.2-1.1,0.4c0.2,0,0.7-0.2,1-0.1c0.3,0.1,0.6,0.3,0.7,0.5
							c0.1,0.5,0.1,0.9,0,1.5c0,0,0,0,0,0c0,0-0.1,0-0.1,0.1c-0.1,0.1-0.3,0.2-0.3,0.4c-0.1,0.3-0.1,0.4-0.1,0.5l0,0.2l0.2,0
							c0,0,0.2,0,0.3,0c0,0,0,0,0.1,0.1c0,0.1,0.1,0.1,0.2,0.2c0.1,0.1,0.2,0.1,0.3,0.1c0,0.5,0,0.6-0.5,0.7
							c-0.7,0.1-1.4-0.2-1.8-0.7s-0.6-1.1-0.4-1.9c0-0.1,0.1-0.2,0.2-0.3c0.1-0.1,0.2-0.2,0.2-0.2l0.3-0.2l-0.4-0.1
							c-0.4-0.1-0.6-0.3-0.6-0.5C-122.6,229.2-122.5,228.9-122.4,228.6L-122.4,228.6z M-120.8,229.4c-0.1,0-0.3,0-0.4,0.1
							c0.1,0.4,0.4,0.9,1.1,0.5C-120.2,229.7-120.4,229.4-120.8,229.4z M-117.7,229.4c-0.4,0-0.6,0.3-0.7,0.6
							c0.7,0.4,1.1-0.1,1.1-0.5C-117.4,229.5-117.6,229.4-117.7,229.4z M-119.2,233.4c0,0,0.1,0.1,0.2,0.1c0.1,0.1,0.3,0.1,0.5,0.1
							c0.2,0,0.3,0,0.5,0c0.1,0.3,0.1,0.4-0.1,0.7c-0.2,0.2-0.5,0.4-1,0.4s-0.9-0.2-1.1-0.4c-0.2-0.2-0.2-0.4-0.1-0.7
							c0.2,0,0.3,0,0.5,0c0.2,0,0.3-0.1,0.5-0.1C-119.3,233.5-119.3,233.5-119.2,233.4z M-123.3,234.1c-0.5,0.4-1,1.2-1.6,1.4
							l0.5-0.1l0.1,0.5C-124,234.9-123.5,234.9-123.3,234.1z M-122.3,234.4c-0.5,0.5-1,1.9-1.5,2.2l0.5-0.2l0.1,0.5
							C-123.1,235.7-122.4,235.2-122.3,234.4z M-114.4,234.6c0.1,0.7,1.1,0.9,1.4,1.9l0.1-0.5l0.6,0
							C-113.5,235.5-113.5,235.3-114.4,234.6z M-115.5,234.6c0,0.7,1.3,1.7,1.3,2.7l0.2-0.5l0.5,0.2
							C-114.2,236.5-115.1,235-115.5,234.6z M-121.6,235.5c-0.4,0.6-0.5,1.4-1,1.8l0.4-0.2l0.2,0.5
							C-122,236.3-121.5,236.3-121.6,235.5z M-116.2,235.5c0,0.7,0.8,1.2,0.7,2.4l0.2-0.5l0.4,0.3
							C-115.3,237.3-115.8,235.9-116.2,235.5z M-117.2,235.7c-0.2,0.8,0.5,1.4,0.2,2.6l0.3-0.5l0.4,0.3
							C-116.7,237.7-116.9,236.3-117.2,235.7z M-120.6,236.2c-0.3,0.6-0.3,1.4-0.7,1.9l0.4-0.3l0.3,0.4
							C-120.8,237-120.4,237-120.6,236.2L-120.6,236.2z M-118.3,236.3c-0.2,0.8,0.4,1,0,2.2l0.3-0.4l0.4,0.3
							C-118,237.9-118.1,236.9-118.3,236.3z M-119.3,236.7c-0.2,0.6-0.1,1.1-0.4,1.6l0.4-0.3l0.3,0.4
							C-119.4,237.3-119.1,237.5-119.3,236.7L-119.3,236.7z"/>
					</g>
				</g>
			</g>
			<path id="path3998" inkscape:connector-curvature="0" d="M-1651.7,340.9c-2.6-0.1-5.8,1.3-6.9,2.4c1.2-0.1,5.4-1.1,7.4-0.7
				c1.9,0.4,4.8,2.6,5.2,3.9c0.5,2.2,0.1,4.5-0.8,7c0,0.1-0.1,0.1-0.2,0.2c-0.1,0.1-0.3,0.2-0.6,0.3c-0.6,0.3-1.5,0.9-2.1,1.9
				c-0.8,1.2-0.6,1.7-0.6,2.5l0,0.9l1-0.1c0,0,1.2,0,1.9,0.4c0,0,0.2,0.2,0.4,0.5c0.2,0.3,0.4,0.6,1,0.9c0.6,0.4,1.2,0.5,1.8,0.6
				l1.9,0.2c0.5,0,1.2-0.1,1.9-0.3c0.6-0.2,0.8-0.5,1.1-0.8c0.3-0.3,0.5-0.4,0.5-0.4c0.8-0.2,1.9-0.1,1.9-0.1l0.9,0.3l0.1-0.9
				c0.1-0.8,0.4-1.3-0.2-2.6c-0.4-1.1-1.2-1.8-1.7-2.2c-0.3-0.2-0.4-0.3-0.5-0.4s-0.1-0.1-0.1-0.2c-0.5-2.7-0.6-4.9,0.3-7
				c0.5-1.3,3.8-2.9,5.7-3c2.1-0.1,6.1,1.6,7.2,1.9c-1-1.3-4.7-3.7-7.6-3.5c-2.3,0.2-6.2,2.1-7,4c-1,2.4-0.9,5.1-0.4,7.8
				c0.1,0.4,0.3,0.8,0.6,1c0.3,0.2,0.5,0.5,0.7,0.6c0.5,0.3,0.9,0.7,1.2,1.4c0.3,0.7,0.1,0.6,0.1,1.2c-0.6-0.1-0.9-0.5-1.8-0.2
				c-0.6,0.2-1,0.6-1.3,0.9c-0.2,0.2-0.4,0.4-0.4,0.5c-0.3,0.1-0.8,0.2-1.2,0.2c-0.4,0-0.8-0.1-0.8-0.1s-0.4,0-0.8-0.1
				c-0.4-0.1-0.9-0.2-1.1-0.4c0,0,0,0,0,0c0,0-0.2-0.3-0.4-0.5c-0.2-0.3-0.5-0.8-1.1-1.1c-0.9-0.4-1.2-0.1-1.8-0.1
				c0-0.6-0.1-0.6,0.2-1.2c0.4-0.7,0.9-0.9,1.4-1.2c0.3-0.1,0.5-0.3,0.8-0.5c0.3-0.2,0.6-0.5,0.7-0.9c1-2.6,1.5-5.2,0.9-7.8
				c-0.5-2.1-4-4.6-6.3-5.1C-1651,341-1651.4,340.9-1651.7,340.9L-1651.7,340.9z M-1652.8,345.6c-0.4,0-0.9,0-1.4,0.1
				c-0.9,0.2-1.9,0.7-3,1.5c0.9,2.2,4.3,4.7,8.4,1.3C-1649.6,347.1-1651,345.7-1652.8,345.6L-1652.8,345.6z M-1631.6,347.3
				c-0.4,0-0.9,0-1.4,0.1c-0.9,0.2-1.9,0.7-3,1.5c0.9,2.2,4.3,4.7,8.4,1.3C-1628.4,348.8-1629.7,347.4-1631.6,347.3z"/>
		</g>
	</g>
</g>
</svg>
