<?xml version="1.0" standalone="no"?>
<!DOCTYPE svg PUBLIC "-//W3C//DTD SVG 20010904//EN"
 "http://www.w3.org/TR/2001/REC-SVG-20010904/DTD/svg10.dtd">
<svg version="1.0" xmlns="http://www.w3.org/2000/svg"
 width="760.000000pt" height="760.000000pt" viewBox="0 0 760.000000 760.000000"
 preserveAspectRatio="xMidYMid meet">
<metadata>
Created by potrace 1.11, written by Peter Selinger 2001-2013
</metadata>
<g transform="translate(0.000000,760.000000) scale(0.100000,-0.100000)"
fill="#000000" stroke="none">
<path d="M1983 6610 c-29 -12 -1579 -867 -1620 -894 -68 -44 -63 103 -63
-1904 l0 -1819 23 -33 c17 -27 177 -123 767 -462 705 -405 748 -428 794 -428
l49 0 128 128 c70 70 484 494 920 942 436 448 796 816 800 818 4 2 417 -418
918 -931 523 -536 925 -940 942 -947 16 -7 46 -10 67 -7 41 5 1466 820 1515
865 15 14 32 42 37 61 6 23 10 677 10 1823 0 1608 -2 1792 -16 1827 -9 22 -25
46 -37 54 -30 19 -1538 853 -1607 889 -65 33 -97 35 -150 8 -80 -41 -74 40
-80 -1105 -6 -1136 0 -1054 -73 -1089 -46 -21 -95 -20 -132 3 -16 10 -338 323
-715 695 l-685 676 -185 -183 c-867 -860 -1199 -1182 -1229 -1194 -41 -18
-100 -9 -136 19 -58 45 -55 -11 -55 1080 0 935 -1 1005 -18 1038 -32 64 -106
95 -169 70z"/>
</g>
</svg>
